<?xml version="1.0" encoding="UTF-8"?>
<svg version="1.1" xmlns="http://www.w3.org/2000/svg" width="250" height="250">
<path d="M0 0 C24.75 0 49.5 0 75 0 C75 2.97 75 5.94 75 9 C77.97 9 80.94 9 84 9 C84 23.19 84 37.38 84 52 C68.82 52 53.64 52 38 52 C38 54.64 38 57.28 38 60 C47.24 60 56.48 60 66 60 C66 63.3 66 66.6 66 70 C55.44 70 44.88 70 34 70 C34 73.3 34 76.6 34 80 C32.35 80 30.7 80 29 80 C29 82.64 29 85.28 29 88 C35.27 88 41.54 88 48 88 C48 94.27 48 100.54 48 107 C44.37 107 40.74 107 37 107 C37 104.03 37 101.06 37 98 C34.36 98 31.72 98 29 98 C29 108.56 29 119.12 29 130 C26.03 130.33 23.06 130.66 20 131 C20 135.29 20 139.58 20 144 C17.03 144 14.06 144 11 144 C11 147.3 11 150.6 11 154 C7.7 154 4.4 154 1 154 C1 165.88 1 177.76 1 190 C4.3 190 7.6 190 11 190 C11 193.3 11 196.6 11 200 C4.4 200 -2.2 200 -9 200 C-9 190.76 -9 181.52 -9 172 C-11.97 172 -14.94 172 -18 172 C-18 169.03 -18 166.06 -18 163 C-20.97 163 -23.94 163 -27 163 C-27 165.97 -27 168.94 -27 172 C-29.97 172 -32.94 172 -36 172 C-36 175.3 -36 178.6 -36 182 C-38.97 182 -41.94 182 -45 182 C-45 184.64 -45 187.28 -45 190 C-43.0509375 189.9690625 -43.0509375 189.9690625 -41.0625 189.9375 C-39.70834367 189.91600546 -38.35243917 189.92851801 -37 190 C-36 191 -36 191 -36 200 C-42.27 200 -48.54 200 -55 200 C-55 187.79 -55 175.58 -55 163 C-58.3 163 -61.6 163 -65 163 C-65 160.03 -65 157.06 -65 154 C-67.97 154 -70.94 154 -74 154 C-74 150.7 -74 147.4 -74 144 C-76.97 144 -79.94 144 -83 144 C-83 141.03 -83 138.06 -83 135 C-85.97 135 -88.94 135 -92 135 C-92 132.03 -92 129.06 -92 126 C-94.97 126 -97.94 126 -101 126 C-101 107.19 -101 88.38 -101 69 C-98.03 69 -95.06 69 -92 69 C-91 70 -91 70 -90.88647461 71.76586914 C-90.89171143 72.51473389 -90.89694824 73.26359863 -90.90234375 74.03515625 C-90.90556641 74.84404297 -90.90878906 75.65292969 -90.91210938 76.48632812 C-90.92048828 77.33646484 -90.92886719 78.18660156 -90.9375 79.0625 C-90.94201172 79.91650391 -90.94652344 80.77050781 -90.95117188 81.65039062 C-90.96299627 83.76695663 -90.98093231 85.88348685 -91 88 C-88.03 88 -85.06 88 -82 88 C-82 90.97 -82 93.94 -82 97 C-79.03 97 -76.06 97 -73 97 C-73 99.97 -73 102.94 -73 106 C-67.06 106 -61.12 106 -55 106 C-55 103.03 -55 100.06 -55 97 C-52.03 97 -49.06 97 -46 97 C-46 94.03 -46 91.06 -46 88 C-41.38 88 -36.76 88 -32 88 C-32 85.03 -32 82.06 -32 79 C-27.71 79 -23.42 79 -19 79 C-19 76.36 -19 73.72 -19 71 C-20.98 70.505 -20.98 70.505 -23 70 C-23 68.68 -23 67.36 -23 66 C-24.65 66 -26.3 66 -28 66 C-28 64.35 -28 62.7 -28 61 C-29.32 61 -30.64 61 -32 61 C-32 59.68 -32 58.36 -32 57 C-40.91 57 -49.82 57 -59 57 C-59 58.32 -59 59.64 -59 61 C-63.95 61 -68.9 61 -74 61 C-74 59.68 -74 58.36 -74 57 C-75.32 57 -76.64 57 -78 57 C-78 55.35 -78 53.7 -78 52 C-81.3 52 -84.6 52 -88 52 C-88 50.35 -88 48.7 -88 47 C-90.97 47 -93.94 47 -97 47 C-97 45.35 -97 43.7 -97 42 C-95.35 42 -93.7 42 -92 42 C-92 40.35 -92 38.7 -92 37 C-89.03 37 -86.06 37 -83 37 C-83 35.68 -83 34.36 -83 33 C-80.03 33 -77.06 33 -74 33 C-74 31.35 -74 29.7 -74 28 C-63.11 28 -52.22 28 -41 28 C-41 29.65 -41 31.3 -41 33 C-36.38 33 -31.76 33 -27 33 C-27 34.32 -27 35.64 -27 37 C-24.03 37 -21.06 37 -18 37 C-18 38.65 -18 40.3 -18 42 C-16.35 42 -14.7 42 -13 42 C-13 43.32 -13 44.64 -13 46 C-11.68 46 -10.36 46 -9 46 C-9 33.79 -9 21.58 -9 9 C-6.03 9 -3.06 9 0 9 C0 6.03 0 3.06 0 0 Z M11 14 C11 16.97 11 19.94 11 23 C13.64 23 16.28 23 19 23 C19 20.03 19 17.06 19 14 C16.36 14 13.72 14 11 14 Z M-13 57 C-13 57.99 -13 58.98 -13 60 C-11.68 60 -10.36 60 -9 60 C-9 59.01 -9 58.02 -9 57 C-10.32 57 -11.64 57 -13 57 Z " fill="#595859" transform="translate(122,25)"/>
<path d="M0 0 C24.75 0 49.5 0 75 0 C75 2.97 75 5.94 75 9 C77.97 9 80.94 9 84 9 C84 23.19 84 37.38 84 52 C68.82 52 53.64 52 38 52 C38 54.64 38 57.28 38 60 C47.24 60 56.48 60 66 60 C66 63.3 66 66.6 66 70 C55.44 70 44.88 70 34 70 C34 72.97 34 75.94 34 79 C23.11 79 12.22 79 1 79 C0.67 77.68 0.34 76.36 0 75 C-4.29 74.67 -8.58 74.34 -13 74 C-13 72.68 -13 71.36 -13 70 C-13.9075 70.185625 -14.815 70.37125 -15.75 70.5625 C-18.68314324 70.95734621 -20.2644657 70.94691572 -23 70 C-23 68.68 -23 67.36 -23 66 C-24.65 66 -26.3 66 -28 66 C-28 64.35 -28 62.7 -28 61 C-29.32 61 -30.64 61 -32 61 C-32 59.68 -32 58.36 -32 57 C-40.91 57 -49.82 57 -59 57 C-59 58.32 -59 59.64 -59 61 C-63.95 61 -68.9 61 -74 61 C-74 59.68 -74 58.36 -74 57 C-75.32 57 -76.64 57 -78 57 C-78 55.35 -78 53.7 -78 52 C-81.3 52 -84.6 52 -88 52 C-88 50.35 -88 48.7 -88 47 C-90.97 47 -93.94 47 -97 47 C-97 45.35 -97 43.7 -97 42 C-95.35 42 -93.7 42 -92 42 C-92 40.35 -92 38.7 -92 37 C-89.03 37 -86.06 37 -83 37 C-83 35.68 -83 34.36 -83 33 C-80.03 33 -77.06 33 -74 33 C-74 31.35 -74 29.7 -74 28 C-63.11 28 -52.22 28 -41 28 C-41 29.65 -41 31.3 -41 33 C-36.38 33 -31.76 33 -27 33 C-27 34.32 -27 35.64 -27 37 C-24.03 37 -21.06 37 -18 37 C-18 38.65 -18 40.3 -18 42 C-16.35 42 -14.7 42 -13 42 C-13 43.32 -13 44.64 -13 46 C-11.68 46 -10.36 46 -9 46 C-9 33.79 -9 21.58 -9 9 C-6.03 9 -3.06 9 0 9 C0 6.03 0 3.06 0 0 Z M11 14 C11 16.97 11 19.94 11 23 C13.64 23 16.28 23 19 23 C19 20.03 19 17.06 19 14 C16.36 14 13.72 14 11 14 Z M-13 57 C-13 57.99 -13 58.98 -13 60 C-11.68 60 -10.36 60 -9 60 C-9 59.01 -9 58.02 -9 57 C-10.32 57 -11.64 57 -13 57 Z " fill="#585657" transform="translate(122,25)"/>
<path d="M0 0 C10.89 0 21.78 0 33 0 C33 1.65 33 3.3 33 5 C37.62 5 42.24 5 47 5 C47 6.32 47 7.64 47 9 C49.97 9 52.94 9 56 9 C56 10.98 56 12.96 56 15 C57.32 15 58.64 15 60 15 C60 16.32 60 17.64 60 19 C61.65 19 63.3 19 65 19 C65 21.97 65 24.94 65 28 C63.35 28 61.7 28 60 28 C60 29.65 60 31.3 60 33 C61.65 33 63.3 33 65 33 C65 34.65 65 36.3 65 38 C67.97 38 70.94 38 74 38 C74 39.32 74 40.64 74 42 C76.97 42 79.94 42 83 42 C83 43.65 83 45.3 83 47 C89.6 47 96.2 47 103 47 C103 45.35 103 43.7 103 42 C104.65 42 106.3 42 108 42 C108 44.97 108 47.94 108 51 C97.11 51 86.22 51 75 51 C74.505 49.02 74.505 49.02 74 47 C69.71 46.67 65.42 46.34 61 46 C61 44.68 61 43.36 61 42 C60.0925 42.185625 59.185 42.37125 58.25 42.5625 C55.31685676 42.95734621 53.7355343 42.94691572 51 42 C51 40.68 51 39.36 51 38 C49.35 38 47.7 38 46 38 C46 36.35 46 34.7 46 33 C44.68 33 43.36 33 42 33 C42 31.68 42 30.36 42 29 C33.09 29 24.18 29 15 29 C15 30.32 15 31.64 15 33 C10.05 33 5.1 33 0 33 C0 31.68 0 30.36 0 29 C-1.32 29 -2.64 29 -4 29 C-4 27.35 -4 25.7 -4 24 C-7.3 24 -10.6 24 -14 24 C-14 22.35 -14 20.7 -14 19 C-16.97 19 -19.94 19 -23 19 C-23 17.35 -23 15.7 -23 14 C-21.35 14 -19.7 14 -18 14 C-18 12.35 -18 10.7 -18 9 C-15.03 9 -12.06 9 -9 9 C-9 7.68 -9 6.36 -9 5 C-6.03 5 -3.06 5 0 5 C0 3.35 0 1.7 0 0 Z " fill="#FB0D0D" transform="translate(48,53)"/>
<path d="M0 0 C9.24 0 18.48 0 28 0 C28 1.65 28 3.3 28 5 C31.3 5 34.6 5 38 5 C38 6.32 38 7.64 38 9 C40.97 9 43.94 9 47 9 C47 10.65 47 12.3 47 14 C39.08 14 31.16 14 23 14 C23 15.32 23 16.64 23 18 C18.71 18 14.42 18 10 18 C10 16.68 10 15.36 10 14 C8.35 14 6.7 14 5 14 C5 12.35 5 10.7 5 9 C2.03 9 -0.94 9 -4 9 C-4 7.68 -4 6.36 -4 5 C-2.68 5 -1.36 5 0 5 C0 3.35 0 1.7 0 0 Z " fill="#A10F13" transform="translate(39,67)"/>
</svg>
